<mxfile host="Electron" agent="Mozilla/5.0 (X11; Linux x86_64) AppleWebKit/537.36 (KHTML, like Gecko) draw.io/24.7.17 Chrome/128.0.6613.36 Electron/32.0.1 Safari/537.36" version="24.7.17">
  <diagram name="Page-1" id="2YBvvXClWsGukQMizWep">
    <mxGraphModel dx="1434" dy="1941" grid="0" gridSize="10" guides="1" tooltips="1" connect="0" arrows="0" fold="1" page="1" pageScale="1" pageWidth="850" pageHeight="1100" math="0" shadow="0">
      <root>
        <mxCell id="0" />
        <mxCell id="1" parent="0" />
        <mxCell id="e-AfWaJcr2d_GAeiChW0-1" value="" style="endArrow=none;dashed=1;html=1;rounded=0;" parent="1" edge="1">
          <mxGeometry width="50" height="50" relative="1" as="geometry">
            <mxPoint x="148" y="222" as="sourcePoint" />
            <mxPoint x="148" y="-128" as="targetPoint" />
          </mxGeometry>
        </mxCell>
        <mxCell id="e-AfWaJcr2d_GAeiChW0-2" value="&lt;b&gt;:Usuario&lt;/b&gt;" style="shape=umlLifeline;perimeter=lifelinePerimeter;whiteSpace=wrap;html=1;container=0;dropTarget=0;collapsible=0;recursiveResize=0;outlineConnect=0;portConstraint=eastwest;newEdgeStyle={&quot;edgeStyle&quot;:&quot;elbowEdgeStyle&quot;,&quot;elbow&quot;:&quot;vertical&quot;,&quot;curved&quot;:0,&quot;rounded&quot;:0};" parent="1" vertex="1">
          <mxGeometry x="428" y="-169" width="100" height="391" as="geometry" />
        </mxCell>
        <mxCell id="e-AfWaJcr2d_GAeiChW0-3" value="" style="html=1;points=[];perimeter=orthogonalPerimeter;outlineConnect=0;targetShapes=umlLifeline;portConstraint=eastwest;newEdgeStyle={&quot;edgeStyle&quot;:&quot;elbowEdgeStyle&quot;,&quot;elbow&quot;:&quot;vertical&quot;,&quot;curved&quot;:0,&quot;rounded&quot;:0};" parent="e-AfWaJcr2d_GAeiChW0-2" vertex="1">
          <mxGeometry x="45" y="50" width="10" height="308" as="geometry" />
        </mxCell>
        <mxCell id="e-AfWaJcr2d_GAeiChW0-4" value="&lt;b&gt;:SistemaDeAutenticação&lt;/b&gt;" style="shape=umlLifeline;perimeter=lifelinePerimeter;whiteSpace=wrap;html=1;container=0;dropTarget=0;collapsible=0;recursiveResize=0;outlineConnect=0;portConstraint=eastwest;newEdgeStyle={&quot;edgeStyle&quot;:&quot;elbowEdgeStyle&quot;,&quot;elbow&quot;:&quot;vertical&quot;,&quot;curved&quot;:0,&quot;rounded&quot;:0};" parent="1" vertex="1">
          <mxGeometry x="234" y="-169" width="150" height="392" as="geometry" />
        </mxCell>
        <mxCell id="e-AfWaJcr2d_GAeiChW0-5" value="" style="html=1;points=[];perimeter=orthogonalPerimeter;outlineConnect=0;targetShapes=umlLifeline;portConstraint=eastwest;newEdgeStyle={&quot;edgeStyle&quot;:&quot;elbowEdgeStyle&quot;,&quot;elbow&quot;:&quot;vertical&quot;,&quot;curved&quot;:0,&quot;rounded&quot;:0};" parent="e-AfWaJcr2d_GAeiChW0-4" vertex="1">
          <mxGeometry x="70" y="92" width="10" height="210" as="geometry" />
        </mxCell>
        <mxCell id="e-AfWaJcr2d_GAeiChW0-6" value="Usuário" style="shape=umlActor;verticalLabelPosition=bottom;verticalAlign=top;html=1;outlineConnect=0;" parent="1" vertex="1">
          <mxGeometry x="133" y="-207" width="30" height="60" as="geometry" />
        </mxCell>
        <mxCell id="e-AfWaJcr2d_GAeiChW0-7" value="" style="rounded=0;whiteSpace=wrap;html=1;" parent="1" vertex="1">
          <mxGeometry x="143" y="-118" width="10" height="305" as="geometry" />
        </mxCell>
        <mxCell id="e-AfWaJcr2d_GAeiChW0-10" value="" style="endArrow=classic;html=1;rounded=0;fontFamily=Helvetica;fontSize=12;fontColor=default;autosize=1;resizable=0;startSize=8;endSize=8;curved=1;" parent="1" edge="1">
          <mxGeometry width="50" height="50" relative="1" as="geometry">
            <mxPoint x="153" y="-77" as="sourcePoint" />
            <mxPoint x="304" y="-77" as="targetPoint" />
          </mxGeometry>
        </mxCell>
        <mxCell id="e-AfWaJcr2d_GAeiChW0-11" value="modificarCadastro()" style="edgeLabel;html=1;align=center;verticalAlign=middle;resizable=0;points=[];fontSize=11;fontFamily=Helvetica;fontColor=default;autosize=1;fillColor=none;gradientColor=none;" parent="e-AfWaJcr2d_GAeiChW0-10" vertex="1" connectable="0">
          <mxGeometry x="0.0451" width="115" height="25" relative="1" as="geometry">
            <mxPoint x="-62" y="-24" as="offset" />
          </mxGeometry>
        </mxCell>
        <mxCell id="e-AfWaJcr2d_GAeiChW0-12" value="" style="endArrow=classic;html=1;rounded=0;fontFamily=Helvetica;fontSize=12;fontColor=default;autosize=1;resizable=0;startSize=8;endSize=8;curved=1;" parent="1" edge="1">
          <mxGeometry width="50" height="50" relative="1" as="geometry">
            <mxPoint x="314" y="-67" as="sourcePoint" />
            <mxPoint x="473" y="-67" as="targetPoint" />
          </mxGeometry>
        </mxCell>
        <mxCell id="e-AfWaJcr2d_GAeiChW0-13" value="getUsuario()" style="edgeLabel;html=1;align=center;verticalAlign=middle;resizable=0;points=[];fontSize=10;fontFamily=Helvetica;fontColor=default;autosize=1;fillColor=none;gradientColor=none;" parent="e-AfWaJcr2d_GAeiChW0-12" vertex="1" connectable="0">
          <mxGeometry x="-0.032" y="1" width="73" height="24" relative="1" as="geometry">
            <mxPoint x="-37" y="-22" as="offset" />
          </mxGeometry>
        </mxCell>
        <mxCell id="e-AfWaJcr2d_GAeiChW0-14" value="" style="endArrow=open;html=1;rounded=0;fontFamily=Helvetica;fontSize=12;fontColor=default;autosize=1;resizable=0;startSize=8;endSize=8;curved=1;dashed=1;endFill=0;" parent="1" edge="1">
          <mxGeometry width="50" height="50" relative="1" as="geometry">
            <mxPoint x="473" y="-40" as="sourcePoint" />
            <mxPoint x="314" y="-40" as="targetPoint" />
          </mxGeometry>
        </mxCell>
        <mxCell id="e-AfWaJcr2d_GAeiChW0-15" value="Usuario" style="edgeLabel;html=1;align=center;verticalAlign=middle;resizable=0;points=[];fontSize=10;fontFamily=Helvetica;fontColor=default;autosize=1;fillColor=none;gradientColor=none;" parent="1" vertex="1" connectable="0">
          <mxGeometry x="373.0028571428571" y="-60.999999999999886" width="52" height="24" as="geometry" />
        </mxCell>
        <mxCell id="e-AfWaJcr2d_GAeiChW0-16" value="" style="endArrow=classic;html=1;rounded=0;fontFamily=Helvetica;fontSize=12;fontColor=default;autosize=1;resizable=0;startSize=8;endSize=8;curved=1;" parent="1" edge="1">
          <mxGeometry width="50" height="50" relative="1" as="geometry">
            <mxPoint x="315" y="33" as="sourcePoint" />
            <mxPoint x="314" y="58" as="targetPoint" />
            <Array as="points">
              <mxPoint x="340" y="32" />
              <mxPoint x="348" y="58" />
            </Array>
          </mxGeometry>
        </mxCell>
        <mxCell id="e-AfWaJcr2d_GAeiChW0-17" value="validaDados()" style="edgeLabel;html=1;align=center;verticalAlign=middle;resizable=0;points=[];fontSize=10;fontFamily=Helvetica;fontColor=default;autosize=1;fillColor=none;gradientColor=none;" parent="e-AfWaJcr2d_GAeiChW0-16" vertex="1" connectable="0">
          <mxGeometry x="-0.099" width="80" height="24" relative="1" as="geometry">
            <mxPoint x="-5" y="-12" as="offset" />
          </mxGeometry>
        </mxCell>
        <mxCell id="e-AfWaJcr2d_GAeiChW0-34" value="" style="endArrow=classic;html=1;rounded=0;fontSize=12;startSize=8;endSize=8;curved=1;" parent="1" edge="1">
          <mxGeometry width="50" height="50" relative="1" as="geometry">
            <mxPoint x="314" y="107" as="sourcePoint" />
            <mxPoint x="474" y="107" as="targetPoint" />
          </mxGeometry>
        </mxCell>
        <mxCell id="e-AfWaJcr2d_GAeiChW0-35" value="&lt;font style=&quot;font-size: 10px;&quot;&gt;setEndereço() || setTelefone() ||&lt;/font&gt;&lt;div&gt;&lt;font style=&quot;font-size: 10px;&quot;&gt;setEmail() || setNome()&amp;nbsp;&lt;/font&gt;&lt;/div&gt;" style="edgeLabel;html=1;align=center;verticalAlign=middle;resizable=0;points=[];fontSize=12;" parent="e-AfWaJcr2d_GAeiChW0-34" vertex="1" connectable="0">
          <mxGeometry x="-0.2089" y="2" relative="1" as="geometry">
            <mxPoint x="14" y="-15" as="offset" />
          </mxGeometry>
        </mxCell>
        <mxCell id="e-AfWaJcr2d_GAeiChW0-36" value="" style="endArrow=open;html=1;rounded=0;fontSize=12;startSize=8;endSize=8;curved=1;dashed=1;endFill=0;" parent="1" edge="1">
          <mxGeometry width="50" height="50" relative="1" as="geometry">
            <mxPoint x="304" y="133" as="sourcePoint" />
            <mxPoint x="153" y="133" as="targetPoint" />
          </mxGeometry>
        </mxCell>
        <mxCell id="e-AfWaJcr2d_GAeiChW0-37" value="Mensagem de&lt;br style=&quot;font-size: 11px;&quot;&gt;Confirmação" style="edgeLabel;html=1;align=center;verticalAlign=middle;resizable=0;points=[];fontSize=11;" parent="e-AfWaJcr2d_GAeiChW0-36" vertex="1" connectable="0">
          <mxGeometry x="0.1296" y="-2" relative="1" as="geometry">
            <mxPoint x="2" y="-16" as="offset" />
          </mxGeometry>
        </mxCell>
        <mxCell id="e-AfWaJcr2d_GAeiChW0-38" value="&lt;font style=&quot;font-size: 12px;&quot;&gt;[se logado]&lt;/font&gt;" style="text;html=1;align=center;verticalAlign=middle;resizable=0;points=[];autosize=1;strokeColor=none;fillColor=none;fontSize=16;" parent="1" vertex="1">
          <mxGeometry x="188" y="-123" width="77" height="31" as="geometry" />
        </mxCell>
        <mxCell id="e-AfWaJcr2d_GAeiChW0-39" value="" style="endArrow=classic;html=1;rounded=0;fontFamily=Helvetica;fontSize=12;fontColor=default;autosize=1;resizable=0;startSize=8;endSize=8;curved=1;entryX=1;entryY=0.715;entryDx=0;entryDy=0;entryPerimeter=0;endFill=1;" parent="1" edge="1">
          <mxGeometry width="50" height="50" relative="1" as="geometry">
            <mxPoint x="304" y="-6" as="sourcePoint" />
            <mxPoint x="153" y="-5.100000000000136" as="targetPoint" />
          </mxGeometry>
        </mxCell>
        <mxCell id="e-AfWaJcr2d_GAeiChW0-40" value="solicitaNovosDados()" style="edgeLabel;html=1;align=center;verticalAlign=middle;resizable=0;points=[];fontSize=11;fontFamily=Helvetica;fontColor=default;autosize=1;fillColor=none;gradientColor=none;" parent="e-AfWaJcr2d_GAeiChW0-39" vertex="1" connectable="0">
          <mxGeometry x="0.0749" y="2" width="122" height="25" relative="1" as="geometry">
            <mxPoint x="-56" y="-25" as="offset" />
          </mxGeometry>
        </mxCell>
        <mxCell id="e-AfWaJcr2d_GAeiChW0-41" value="" style="endArrow=open;html=1;rounded=0;fontSize=12;startSize=8;endSize=8;curved=1;dashed=1;endFill=0;" parent="1" edge="1">
          <mxGeometry width="50" height="50" relative="1" as="geometry">
            <mxPoint x="153" y="18" as="sourcePoint" />
            <mxPoint x="304" y="18" as="targetPoint" />
          </mxGeometry>
        </mxCell>
        <mxCell id="e-AfWaJcr2d_GAeiChW0-42" value="dados a serem modificados" style="edgeLabel;html=1;align=center;verticalAlign=middle;resizable=0;points=[];fontSize=11;" parent="e-AfWaJcr2d_GAeiChW0-41" vertex="1" connectable="0">
          <mxGeometry x="-0.0785" relative="1" as="geometry">
            <mxPoint x="4" y="-9" as="offset" />
          </mxGeometry>
        </mxCell>
        <mxCell id="FapEGhosS_h6g9DJhjAN-1" value="" style="endArrow=none;dashed=1;html=1;rounded=0;" edge="1" parent="1">
          <mxGeometry width="50" height="50" relative="1" as="geometry">
            <mxPoint x="145" y="-391" as="sourcePoint" />
            <mxPoint x="145" y="-876" as="targetPoint" />
          </mxGeometry>
        </mxCell>
        <mxCell id="FapEGhosS_h6g9DJhjAN-2" value="&lt;b&gt;:Usuario&lt;/b&gt;" style="shape=umlLifeline;perimeter=lifelinePerimeter;whiteSpace=wrap;html=1;container=0;dropTarget=0;collapsible=0;recursiveResize=0;outlineConnect=0;portConstraint=eastwest;newEdgeStyle={&quot;edgeStyle&quot;:&quot;elbowEdgeStyle&quot;,&quot;elbow&quot;:&quot;vertical&quot;,&quot;curved&quot;:0,&quot;rounded&quot;:0};" vertex="1" parent="1">
          <mxGeometry x="577" y="-946" width="102" height="558" as="geometry" />
        </mxCell>
        <mxCell id="FapEGhosS_h6g9DJhjAN-3" value="" style="rounded=0;whiteSpace=wrap;html=1;fillColor=none;" vertex="1" parent="FapEGhosS_h6g9DJhjAN-2">
          <mxGeometry x="-530" y="294" width="632" height="215" as="geometry" />
        </mxCell>
        <mxCell id="FapEGhosS_h6g9DJhjAN-4" value="" style="html=1;points=[];perimeter=orthogonalPerimeter;outlineConnect=0;targetShapes=umlLifeline;portConstraint=eastwest;newEdgeStyle={&quot;edgeStyle&quot;:&quot;elbowEdgeStyle&quot;,&quot;elbow&quot;:&quot;vertical&quot;,&quot;curved&quot;:0,&quot;rounded&quot;:0};" vertex="1" parent="FapEGhosS_h6g9DJhjAN-2">
          <mxGeometry x="45" y="105" width="10" height="47" as="geometry" />
        </mxCell>
        <mxCell id="FapEGhosS_h6g9DJhjAN-5" value="" style="html=1;points=[];perimeter=orthogonalPerimeter;outlineConnect=0;targetShapes=umlLifeline;portConstraint=eastwest;newEdgeStyle={&quot;edgeStyle&quot;:&quot;elbowEdgeStyle&quot;,&quot;elbow&quot;:&quot;vertical&quot;,&quot;curved&quot;:0,&quot;rounded&quot;:0};" vertex="1" parent="FapEGhosS_h6g9DJhjAN-2">
          <mxGeometry x="45" y="352" width="10" height="21" as="geometry" />
        </mxCell>
        <mxCell id="FapEGhosS_h6g9DJhjAN-6" value="" style="endArrow=open;html=1;rounded=0;fontSize=12;startSize=8;endSize=8;curved=1;dashed=1;endFill=0;" edge="1" parent="FapEGhosS_h6g9DJhjAN-2">
          <mxGeometry width="50" height="50" relative="1" as="geometry">
            <mxPoint x="-125" y="457" as="sourcePoint" />
            <mxPoint x="-276" y="457" as="targetPoint" />
          </mxGeometry>
        </mxCell>
        <mxCell id="FapEGhosS_h6g9DJhjAN-7" value="msgErro()" style="edgeLabel;html=1;align=center;verticalAlign=middle;resizable=0;points=[];fontSize=12;" vertex="1" connectable="0" parent="FapEGhosS_h6g9DJhjAN-6">
          <mxGeometry x="0.1296" y="-2" relative="1" as="geometry">
            <mxPoint x="10" y="-9" as="offset" />
          </mxGeometry>
        </mxCell>
        <mxCell id="FapEGhosS_h6g9DJhjAN-8" value="" style="endArrow=classic;html=1;rounded=0;fontFamily=Helvetica;fontSize=12;fontColor=default;autosize=1;resizable=0;startSize=8;endSize=8;curved=1;endFill=1;" edge="1" parent="FapEGhosS_h6g9DJhjAN-2">
          <mxGeometry width="50" height="50" relative="1" as="geometry">
            <mxPoint x="-125" y="161" as="sourcePoint" />
            <mxPoint x="-276" y="161" as="targetPoint" />
          </mxGeometry>
        </mxCell>
        <mxCell id="FapEGhosS_h6g9DJhjAN-9" value="solicitaNovosDados()" style="edgeLabel;html=1;align=center;verticalAlign=middle;resizable=0;points=[];fontSize=11;fontFamily=Helvetica;fontColor=default;autosize=1;fillColor=none;gradientColor=none;" vertex="1" connectable="0" parent="FapEGhosS_h6g9DJhjAN-8">
          <mxGeometry x="0.0749" y="2" width="122" height="25" relative="1" as="geometry">
            <mxPoint x="-56" y="-25" as="offset" />
          </mxGeometry>
        </mxCell>
        <mxCell id="FapEGhosS_h6g9DJhjAN-14" value="" style="endArrow=open;html=1;rounded=0;fontSize=12;startSize=8;endSize=8;curved=1;dashed=1;endFill=0;" edge="1" parent="FapEGhosS_h6g9DJhjAN-2">
          <mxGeometry width="50" height="50" relative="1" as="geometry">
            <mxPoint x="-124" y="388" as="sourcePoint" />
            <mxPoint x="-275" y="388" as="targetPoint" />
          </mxGeometry>
        </mxCell>
        <mxCell id="FapEGhosS_h6g9DJhjAN-15" value="msgConfirmação()" style="edgeLabel;html=1;align=center;verticalAlign=middle;resizable=0;points=[];fontSize=12;" vertex="1" connectable="0" parent="FapEGhosS_h6g9DJhjAN-14">
          <mxGeometry x="0.1296" y="-2" relative="1" as="geometry">
            <mxPoint x="13" y="-8" as="offset" />
          </mxGeometry>
        </mxCell>
        <mxCell id="FapEGhosS_h6g9DJhjAN-19" value="&lt;b&gt;:SistemaDeAutenticação&lt;/b&gt;" style="shape=umlLifeline;perimeter=lifelinePerimeter;whiteSpace=wrap;html=1;container=0;dropTarget=0;collapsible=0;recursiveResize=0;outlineConnect=0;portConstraint=eastwest;newEdgeStyle={&quot;edgeStyle&quot;:&quot;elbowEdgeStyle&quot;,&quot;elbow&quot;:&quot;vertical&quot;,&quot;curved&quot;:0,&quot;rounded&quot;:0};" vertex="1" parent="1">
          <mxGeometry x="383" y="-946" width="150" height="555" as="geometry" />
        </mxCell>
        <mxCell id="FapEGhosS_h6g9DJhjAN-20" value="" style="html=1;points=[];perimeter=orthogonalPerimeter;outlineConnect=0;targetShapes=umlLifeline;portConstraint=eastwest;newEdgeStyle={&quot;edgeStyle&quot;:&quot;elbowEdgeStyle&quot;,&quot;elbow&quot;:&quot;vertical&quot;,&quot;curved&quot;:0,&quot;rounded&quot;:0};" vertex="1" parent="FapEGhosS_h6g9DJhjAN-19">
          <mxGeometry x="70" y="102" width="10" height="286" as="geometry" />
        </mxCell>
        <mxCell id="FapEGhosS_h6g9DJhjAN-21" value="" style="html=1;points=[];perimeter=orthogonalPerimeter;outlineConnect=0;targetShapes=umlLifeline;portConstraint=eastwest;newEdgeStyle={&quot;edgeStyle&quot;:&quot;elbowEdgeStyle&quot;,&quot;elbow&quot;:&quot;vertical&quot;,&quot;curved&quot;:0,&quot;rounded&quot;:0};" vertex="1" parent="FapEGhosS_h6g9DJhjAN-19">
          <mxGeometry x="70" y="452" width="10" height="11" as="geometry" />
        </mxCell>
        <mxCell id="FapEGhosS_h6g9DJhjAN-22" value="Usuário" style="shape=umlActor;verticalLabelPosition=bottom;verticalAlign=top;html=1;outlineConnect=0;" vertex="1" parent="1">
          <mxGeometry x="130" y="-955" width="30" height="60" as="geometry" />
        </mxCell>
        <mxCell id="FapEGhosS_h6g9DJhjAN-23" value="" style="rounded=0;whiteSpace=wrap;html=1;" vertex="1" parent="1">
          <mxGeometry x="140" y="-866" width="10" height="461" as="geometry" />
        </mxCell>
        <mxCell id="FapEGhosS_h6g9DJhjAN-24" value="" style="endArrow=classic;html=1;rounded=0;fontFamily=Helvetica;fontSize=12;fontColor=default;autosize=1;resizable=0;startSize=8;endSize=8;curved=1;" edge="1" parent="1" target="FapEGhosS_h6g9DJhjAN-20">
          <mxGeometry width="50" height="50" relative="1" as="geometry">
            <mxPoint x="302" y="-844" as="sourcePoint" />
            <mxPoint x="352" y="-894" as="targetPoint" />
          </mxGeometry>
        </mxCell>
        <mxCell id="FapEGhosS_h6g9DJhjAN-25" value="alterarSenha()" style="edgeLabel;html=1;align=center;verticalAlign=middle;resizable=0;points=[];fontSize=10;fontFamily=Helvetica;fontColor=default;autosize=1;fillColor=none;gradientColor=none;" vertex="1" connectable="0" parent="FapEGhosS_h6g9DJhjAN-24">
          <mxGeometry x="0.0451" width="82" height="24" relative="1" as="geometry">
            <mxPoint x="-47" y="-23" as="offset" />
          </mxGeometry>
        </mxCell>
        <mxCell id="FapEGhosS_h6g9DJhjAN-26" value="" style="endArrow=classic;html=1;rounded=0;fontFamily=Helvetica;fontSize=12;fontColor=default;autosize=1;resizable=0;startSize=8;endSize=8;curved=1;" edge="1" parent="1" target="FapEGhosS_h6g9DJhjAN-4">
          <mxGeometry width="50" height="50" relative="1" as="geometry">
            <mxPoint x="463" y="-829" as="sourcePoint" />
            <mxPoint x="481" y="-891" as="targetPoint" />
          </mxGeometry>
        </mxCell>
        <mxCell id="FapEGhosS_h6g9DJhjAN-27" value="getDadosPessoais; getUsuario()" style="edgeLabel;html=1;align=center;verticalAlign=middle;resizable=0;points=[];fontSize=10;fontFamily=Helvetica;fontColor=default;autosize=1;fillColor=none;gradientColor=none;" vertex="1" connectable="0" parent="FapEGhosS_h6g9DJhjAN-26">
          <mxGeometry x="-0.032" y="1" width="162" height="24" relative="1" as="geometry">
            <mxPoint x="-81" y="-22" as="offset" />
          </mxGeometry>
        </mxCell>
        <mxCell id="FapEGhosS_h6g9DJhjAN-28" value="" style="endArrow=open;html=1;rounded=0;fontFamily=Helvetica;fontSize=12;fontColor=default;autosize=1;resizable=0;startSize=8;endSize=8;curved=1;dashed=1;endFill=0;" edge="1" parent="1">
          <mxGeometry width="50" height="50" relative="1" as="geometry">
            <mxPoint x="622" y="-802" as="sourcePoint" />
            <mxPoint x="463" y="-802" as="targetPoint" />
          </mxGeometry>
        </mxCell>
        <mxCell id="FapEGhosS_h6g9DJhjAN-29" value="dadosPessoais, Usuario" style="edgeLabel;html=1;align=center;verticalAlign=middle;resizable=0;points=[];fontSize=10;fontFamily=Helvetica;fontColor=default;autosize=1;fillColor=none;gradientColor=none;" vertex="1" connectable="0" parent="1">
          <mxGeometry x="483.0028571428571" y="-821.9999999999999" width="126" height="24" as="geometry" />
        </mxCell>
        <mxCell id="FapEGhosS_h6g9DJhjAN-30" value="" style="endArrow=classic;html=1;rounded=0;fontFamily=Helvetica;fontSize=12;fontColor=default;autosize=1;resizable=0;startSize=8;endSize=8;curved=1;" edge="1" parent="1">
          <mxGeometry width="50" height="50" relative="1" as="geometry">
            <mxPoint x="464" y="-718" as="sourcePoint" />
            <mxPoint x="463" y="-693" as="targetPoint" />
            <Array as="points">
              <mxPoint x="489" y="-719" />
              <mxPoint x="497" y="-693" />
            </Array>
          </mxGeometry>
        </mxCell>
        <mxCell id="FapEGhosS_h6g9DJhjAN-31" value="validaDados()" style="edgeLabel;html=1;align=center;verticalAlign=middle;resizable=0;points=[];fontSize=10;fontFamily=Helvetica;fontColor=default;autosize=1;fillColor=none;gradientColor=none;" vertex="1" connectable="0" parent="FapEGhosS_h6g9DJhjAN-30">
          <mxGeometry x="-0.099" width="80" height="24" relative="1" as="geometry">
            <mxPoint x="-3" y="-10" as="offset" />
          </mxGeometry>
        </mxCell>
        <mxCell id="FapEGhosS_h6g9DJhjAN-32" value="[se formatação&lt;div&gt;correta]&lt;/div&gt;" style="text;html=1;align=center;verticalAlign=middle;whiteSpace=wrap;rounded=0;fontSize=9;" vertex="1" parent="1">
          <mxGeometry x="36" y="-633" width="90" height="30" as="geometry" />
        </mxCell>
        <mxCell id="FapEGhosS_h6g9DJhjAN-33" value="UC-06&lt;div&gt;Modificar informações&lt;/div&gt;&lt;div&gt;de cadastro&lt;/div&gt;" style="strokeWidth=2;html=1;shape=mxgraph.flowchart.start_1;whiteSpace=wrap;" vertex="1" parent="1">
          <mxGeometry x="335" y="-1059" width="134" height="83" as="geometry" />
        </mxCell>
        <mxCell id="FapEGhosS_h6g9DJhjAN-34" value="&lt;b&gt;:Interface&lt;/b&gt;" style="shape=umlLifeline;perimeter=lifelinePerimeter;whiteSpace=wrap;html=1;container=0;dropTarget=0;collapsible=0;recursiveResize=0;outlineConnect=0;portConstraint=eastwest;newEdgeStyle={&quot;edgeStyle&quot;:&quot;elbowEdgeStyle&quot;,&quot;elbow&quot;:&quot;vertical&quot;,&quot;curved&quot;:0,&quot;rounded&quot;:0};" vertex="1" parent="1">
          <mxGeometry x="244" y="-944" width="104" height="556" as="geometry" />
        </mxCell>
        <mxCell id="FapEGhosS_h6g9DJhjAN-35" value="" style="html=1;points=[];perimeter=orthogonalPerimeter;outlineConnect=0;targetShapes=umlLifeline;portConstraint=eastwest;newEdgeStyle={&quot;edgeStyle&quot;:&quot;elbowEdgeStyle&quot;,&quot;elbow&quot;:&quot;vertical&quot;,&quot;curved&quot;:0,&quot;rounded&quot;:0};" vertex="1" parent="FapEGhosS_h6g9DJhjAN-34">
          <mxGeometry x="47" y="77" width="10" height="460" as="geometry" />
        </mxCell>
        <mxCell id="FapEGhosS_h6g9DJhjAN-36" value="" style="endArrow=classic;html=1;rounded=0;fontSize=12;startSize=8;endSize=8;curved=1;exitX=1.14;exitY=0.024;exitDx=0;exitDy=0;exitPerimeter=0;" edge="1" parent="1" source="FapEGhosS_h6g9DJhjAN-23" target="FapEGhosS_h6g9DJhjAN-35">
          <mxGeometry width="50" height="50" relative="1" as="geometry">
            <mxPoint x="291" y="-787" as="sourcePoint" />
            <mxPoint x="341" y="-837" as="targetPoint" />
          </mxGeometry>
        </mxCell>
        <mxCell id="FapEGhosS_h6g9DJhjAN-37" value="&lt;span style=&quot;font-size: 9px;&quot;&gt;entra na opção&lt;/span&gt;&lt;div style=&quot;font-size: 9px;&quot;&gt;&lt;span style=&quot;font-size: 9px;&quot;&gt;&quot;alterar opções de cadastro&quot;&lt;/span&gt;&lt;/div&gt;" style="edgeLabel;html=1;align=center;verticalAlign=middle;resizable=0;points=[];fontSize=9;" vertex="1" connectable="0" parent="FapEGhosS_h6g9DJhjAN-36">
          <mxGeometry x="-0.1633" y="1" relative="1" as="geometry">
            <mxPoint x="6" y="18" as="offset" />
          </mxGeometry>
        </mxCell>
        <mxCell id="FapEGhosS_h6g9DJhjAN-40" value="" style="endArrow=open;html=1;rounded=0;fontSize=12;startSize=8;endSize=8;curved=1;dashed=1;endFill=0;" edge="1" parent="1">
          <mxGeometry width="50" height="50" relative="1" as="geometry">
            <mxPoint x="291" y="-537" as="sourcePoint" />
            <mxPoint x="150" y="-537" as="targetPoint" />
          </mxGeometry>
        </mxCell>
        <mxCell id="FapEGhosS_h6g9DJhjAN-41" value="&lt;font style=&quot;font-size: 10px;&quot;&gt;Mensagem de Confirmação&lt;/font&gt;" style="edgeLabel;html=1;align=center;verticalAlign=middle;resizable=0;points=[];fontSize=12;" vertex="1" connectable="0" parent="FapEGhosS_h6g9DJhjAN-40">
          <mxGeometry x="0.1296" y="-2" relative="1" as="geometry">
            <mxPoint x="10" y="-12" as="offset" />
          </mxGeometry>
        </mxCell>
        <mxCell id="FapEGhosS_h6g9DJhjAN-42" value="" style="endArrow=open;html=1;rounded=0;fontSize=12;startSize=8;endSize=8;curved=1;dashed=1;endFill=0;" edge="1" parent="1">
          <mxGeometry width="50" height="50" relative="1" as="geometry">
            <mxPoint x="291" y="-462" as="sourcePoint" />
            <mxPoint x="150" y="-462" as="targetPoint" />
          </mxGeometry>
        </mxCell>
        <mxCell id="FapEGhosS_h6g9DJhjAN-43" value="&lt;font style=&quot;font-size: 10px;&quot;&gt;Mensagem de Erro&lt;/font&gt;&lt;div&gt;&lt;span style=&quot;font-size: 10px;&quot;&gt;&quot;dados incorretos&quot;&lt;/span&gt;&lt;/div&gt;" style="edgeLabel;html=1;align=center;verticalAlign=middle;resizable=0;points=[];fontSize=12;" vertex="1" connectable="0" parent="FapEGhosS_h6g9DJhjAN-42">
          <mxGeometry x="0.1296" y="-2" relative="1" as="geometry">
            <mxPoint x="8" y="-16" as="offset" />
          </mxGeometry>
        </mxCell>
        <mxCell id="FapEGhosS_h6g9DJhjAN-44" value="[se formatação&lt;div&gt;incorreta]&lt;/div&gt;" style="text;html=1;align=center;verticalAlign=middle;whiteSpace=wrap;rounded=0;fontSize=9;" vertex="1" parent="1">
          <mxGeometry x="36" y="-515" width="94" height="30" as="geometry" />
        </mxCell>
        <mxCell id="FapEGhosS_h6g9DJhjAN-45" value="[se logado]" style="text;html=1;align=center;verticalAlign=middle;whiteSpace=wrap;rounded=0;fontSize=11;" vertex="1" parent="1">
          <mxGeometry x="168" y="-881" width="94" height="30" as="geometry" />
        </mxCell>
        <mxCell id="FapEGhosS_h6g9DJhjAN-46" value="" style="endArrow=classic;html=1;rounded=0;fontSize=12;startSize=8;endSize=8;curved=1;" edge="1" parent="1">
          <mxGeometry width="50" height="50" relative="1" as="geometry">
            <mxPoint x="291" y="-768" as="sourcePoint" />
            <mxPoint x="151" y="-768" as="targetPoint" />
          </mxGeometry>
        </mxCell>
        <mxCell id="FapEGhosS_h6g9DJhjAN-47" value="&lt;font style=&quot;font-size: 10px;&quot;&gt;solicita que usuário insira&lt;/font&gt;&lt;div&gt;&lt;font style=&quot;font-size: 10px;&quot;&gt;dados a serem modificados&lt;/font&gt;&lt;/div&gt;" style="edgeLabel;html=1;align=center;verticalAlign=middle;resizable=0;points=[];fontSize=12;" vertex="1" connectable="0" parent="FapEGhosS_h6g9DJhjAN-46">
          <mxGeometry x="-0.0257" y="1" relative="1" as="geometry">
            <mxPoint x="-1" y="-19" as="offset" />
          </mxGeometry>
        </mxCell>
        <mxCell id="FapEGhosS_h6g9DJhjAN-48" value="" style="endArrow=open;html=1;rounded=0;fontSize=12;startSize=8;endSize=8;curved=1;dashed=1;endFill=0;" edge="1" parent="1">
          <mxGeometry width="50" height="50" relative="1" as="geometry">
            <mxPoint x="151" y="-754" as="sourcePoint" />
            <mxPoint x="291" y="-754" as="targetPoint" />
          </mxGeometry>
        </mxCell>
        <mxCell id="FapEGhosS_h6g9DJhjAN-49" value="insere dados a serem&lt;div&gt;modificados&lt;/div&gt;" style="edgeLabel;html=1;align=center;verticalAlign=middle;resizable=0;points=[];fontSize=10;" vertex="1" connectable="0" parent="FapEGhosS_h6g9DJhjAN-48">
          <mxGeometry x="-0.0785" relative="1" as="geometry">
            <mxPoint x="4" y="16" as="offset" />
          </mxGeometry>
        </mxCell>
        <mxCell id="FapEGhosS_h6g9DJhjAN-50" value="" style="endArrow=open;html=1;rounded=0;fontSize=12;startSize=8;endSize=8;curved=1;dashed=1;endFill=0;" edge="1" parent="1">
          <mxGeometry width="50" height="50" relative="1" as="geometry">
            <mxPoint x="302" y="-742" as="sourcePoint" />
            <mxPoint x="453" y="-742" as="targetPoint" />
          </mxGeometry>
        </mxCell>
        <mxCell id="FapEGhosS_h6g9DJhjAN-51" value="dados a serem&lt;div&gt;modificados&lt;/div&gt;" style="edgeLabel;html=1;align=center;verticalAlign=middle;resizable=0;points=[];fontSize=12;" vertex="1" connectable="0" parent="FapEGhosS_h6g9DJhjAN-50">
          <mxGeometry x="-0.0785" relative="1" as="geometry">
            <mxPoint x="3" y="16" as="offset" />
          </mxGeometry>
        </mxCell>
        <mxCell id="FapEGhosS_h6g9DJhjAN-52" value="verifica formato dos dados" style="verticalLabelPosition=middle;verticalAlign=middle;html=1;shape=card;whiteSpace=wrap;size=5;arcSize=12;labelPosition=center;align=center;flipH=1;flipV=1;fontSize=8;" vertex="1" parent="1">
          <mxGeometry x="47" y="-652" width="72" height="20" as="geometry" />
        </mxCell>
        <mxCell id="FapEGhosS_h6g9DJhjAN-53" value="" style="endArrow=classic;html=1;rounded=0;fontSize=12;startSize=8;endSize=8;curved=1;" edge="1" parent="1">
          <mxGeometry width="50" height="50" relative="1" as="geometry">
            <mxPoint x="463" y="-583.79" as="sourcePoint" />
            <mxPoint x="623" y="-583.79" as="targetPoint" />
          </mxGeometry>
        </mxCell>
        <mxCell id="FapEGhosS_h6g9DJhjAN-54" value="&lt;font style=&quot;font-size: 10px;&quot;&gt;setEndereço() || setTelefone() ||&lt;/font&gt;&lt;div&gt;&lt;font style=&quot;font-size: 10px;&quot;&gt;setEmail() || setNome()&amp;nbsp;&lt;/font&gt;&lt;/div&gt;" style="edgeLabel;html=1;align=center;verticalAlign=middle;resizable=0;points=[];fontSize=12;" vertex="1" connectable="0" parent="FapEGhosS_h6g9DJhjAN-53">
          <mxGeometry x="-0.2089" y="2" relative="1" as="geometry">
            <mxPoint x="14" y="-15" as="offset" />
          </mxGeometry>
        </mxCell>
        <mxCell id="FapEGhosS_h6g9DJhjAN-18" value="" style="endArrow=none;dashed=1;html=1;rounded=0;entryX=0.999;entryY=0.703;entryDx=0;entryDy=0;entryPerimeter=0;exitX=0;exitY=0.704;exitDx=0;exitDy=0;exitPerimeter=0;" edge="1" parent="1">
          <mxGeometry width="50" height="50" relative="1" as="geometry">
            <mxPoint x="47.629999999999995" y="-517.742" as="sourcePoint" />
            <mxPoint x="678.9980000000002" y="-518.0040000000001" as="targetPoint" />
          </mxGeometry>
        </mxCell>
      </root>
    </mxGraphModel>
  </diagram>
</mxfile>
